; NON-PLATED HOLES START AT T1
; THROUGH (PLATED) HOLES START AT T100
M48
INCH
T1C0.130000
T100C0.035000
T101C0.027559
T102C0.039370
T103C0.015748
T104C0.038000
T105C0.040000
%
T1
X021994Y007759
T100
X006094Y012759
X009094Y017759
X009094Y009759
X006094Y017759
X006094Y009759
X009094Y010759
X006094Y010759
X009094Y015759
X009094Y007759
X006094Y015759
X016094Y012759
X006094Y007759
X009094Y013759
X006094Y013759
X009094Y018759
X017094Y015759
X006094Y018759
X016094Y015759
X009094Y011759
X019094Y021759
X006094Y011759
X009094Y016759
X009094Y008759
X006094Y016759
X006094Y008759
X002094Y027759
X004094Y027759
X009094Y014759
X003094Y027759
X009094Y006759
X006094Y014759
X009094Y019759
X023094Y021759
X016094Y011759
X006094Y006759
X006094Y019759
X009094Y012759
T101
X015094Y005759
X018094Y004759
X015094Y004759
X018094Y003759
T102
X002094Y017759
X002094Y021759
X002094Y014759
X002094Y007759
X002094Y011759
X002094Y004759
X002094Y019759
X002094Y016759
X002094Y009759
X002094Y020759
X002094Y013759
X002094Y006759
X002094Y010759
X002094Y003759
X002094Y018759
X002094Y022759
X002094Y015759
X002094Y008759
X002094Y012759
X002094Y005759
T103
X022094Y017759
X023094Y013759
X005094Y027759
X009094Y028759
X022094Y020759
X008094Y027759
T104
X018094Y011759
X018094Y012759
X010094Y012759
X003094Y001759
X004094Y001759
X005094Y001759
X006094Y001759
X008094Y025759
X007094Y001759
X009094Y025759
X008094Y001759
T105
X019094Y016759
X020094Y017759
X019094Y017759
X020094Y018759
X019094Y018759
X016094Y006759
X016094Y007759
X016094Y008759
X020094Y016759
T00
M30
